/* XPM */
static char * gnome_db_dsnconfig_xpm[] = {
"21 21 4 1",
" 	c None",
".     c #B5B5B5",
"+     c #FFFFFF",
"@     c #000000",
"............         ",
".++.++.++.+.         ",
"............         ",
".++.+++++++.         ",
"..+.+..+.++.         ",
".++.+++++++.         ",
"..+.+.+.+.+.         ",
".++.+@@@@@@@@@@@@@@@ ",
"..+. @+++++++++++++@ ",
".++. @+++++++++++++@ ",
".... @+@@+@@@@@@@@+@ ",
"     @+++++++++++++@ ",
"     @+@@+@@@@@@@@+@ ",
"     @+++++++++++++@ ",
"     @+@@+@@@@@@@@+@ ",
"     @+++++++++++++@ ",
"     @+@@+@@@@@@@@+@ ",
"     @+++++++++++++@ ",
"     @+++++++++++++@ ",
"     @@@@@@@@@@@@@@@ ",
"                     "};
